#!OML:ASF I:\Actors\actors\Patient Classification 2\Patient 1\Session 1\actor1.ASF
:FULLY-SPECIFIED
:DEGREES
764
root -0.508179 18.809 5.66161 5.76189 -2.28808 0.359115
lowerback 16.8562 1.22956 -0.633607
upperback -2.43794 1.6279 1.0019
thorax -12.2636 0.850496 1.02585
lowerneck -17.3711 -2.75335 -3.43193
upperneck 18.1473 -3.39814 2.43759
head 8.63011 -1.57907 0.965889
rclavicle -7.60351e-015 -2.78299e-015
rhumerus -37.1678 -27 -6.68132
rradius 39.1617
rwrist 26.8968
rhand -2.70618 -42.9428
rfingers 7.12502
rthumb 22.9959 -71.591
lclavicle -7.60351e-015 -2.78299e-015
lhumerus -28.0912 23.3752 16.5852
lradius 35.1937
lwrist -31.461
lhand 3.08994 -21.4331
lfingers 7.12502
lthumb 28.5465 6.40778
rfemur 1.14558 6.97937 12.4099
rtibia -4.77083e-015
rfoot -18.4978 -15.4107
rtoes -4.41835
lfemur -8.58041 -5.70639 -14.8566
ltibia 20.6538
lfoot -21.1615 15.2045
ltoes -54.7347
765
root -0.506402 18.8032 5.67116 5.53794 -2.34195 0.375118
lowerback 16.677 1.24794 -0.665501
upperback -2.51019 1.64603 0.99395
thorax -12.2417 0.861504 1.03265
lowerneck -17.2184 -2.75327 -3.36301
upperneck 18.2705 -3.40163 2.33135
head 8.64158 -1.58845 0.919643
rclavicle -2.83765e-014 -1.47101e-014
rhumerus -38.9669 -26.3028 -7.11558
rradius 40.0879
rwrist 25.4426
rhand -2.02025 -42.4491
rfingers 7.12502
rthumb 23.654 -71.0139
lclavicle -2.83765e-014 -1.47101e-014
lhumerus -29.7724 22.4806 17.1654
lradius 36.1152
lwrist -29.089
lhand 2.47344 -21.5814
lfingers 7.12502
lthumb 27.9573 6.35694
rfemur 1.42644 7.06017 12.4146
rtibia -7.95139e-015
rfoot -18.5257 -15.39
rtoes -4.79326
lfemur -8.23986 -5.969 -14.92
ltibia 20.606
lfoot -21.4204 15.3233
ltoes -54.4875
766
root -0.505003 18.7974 5.67985 5.3258 -2.38865 0.405753
lowerback 16.4851 1.2778 -0.728292
upperback -2.58028 1.67323 0.986236
thorax -12.211 0.878963 1.05512
lowerneck -17.1036 -2.75033 -3.30536
upperneck 18.4808 -3.39421 2.2061
head 8.68906 -1.59504 0.869625
rclavicle -6.26172e-015 1.98785e-015
rhumerus -40.7887 -25.1979 -7.81887
rradius 41.2285
rwrist 23.0076
rhand -1.97944 -42.5845
rfingers 7.12502
rthumb 23.6931 -71.1442
lclavicle -6.26172e-015 1.98785e-015
lhumerus -31.4781 21.7917 17.8725
lradius 37.1097
lwrist -26.7279
lhand 1.58018 -21.8426
lfingers 7.12502
lthumb 27.103 6.23178
rfemur 1.68606 7.13091 12.4029
rtibia -2.06736e-014
rfoot -18.5837 -15.3752
rtoes -4.87586
lfemur -7.94139 -5.96481 -14.9908
ltibia 20.5551
lfoot -21.4924 15.2757
ltoes -54.436
767
root -0.503503 18.7925 5.68696 5.12988 -2.43843 0.406455
lowerback 16.3075 1.30558 -0.748692
upperback -2.6873 1.70722 0.980197
thorax -12.2296 0.896978 1.05318
lowerneck -16.8871 -2.72292 -3.15081
upperneck 18.6667 -3.34352 1.91001
head 8.70381 -1.59355 0.752379
rclavicle -1.00883e-014 -5.56597e-015
rhumerus -42.6047 -24.1508 -8.63478
rradius 42.4507
rwrist 20.5364
rhand -1.47488 -43.6008
rfingers 7.12502
rthumb 24.177 -72.0971
lclavicle -1.00883e-014 -5.56597e-015
lhumerus -33.1907 21.2437 18.6175
lradius 38.0854
lwrist -24.5699
lhand 0.708261 -22.1684
lfingers 7.12502
lthumb 26.2686 6.03309
rfemur 1.91698 7.20561 12.4195
rtibia -4.77083e-015
rfoot -18.64 -15.3321
rtoes -4.72522
lfemur -7.67586 -5.93684 -15.029
ltibia 20.5247
lfoot -21.5372 15.2616
ltoes -54.4677
768
root -0.502095 18.7873 5.69279 4.93471 -2.51868 0.373342
lowerback 16.1624 1.32294 -0.752869
upperback -2.81058 1.73195 0.984267
thorax -12.2856 0.910088 1.05508
lowerneck -16.6126 -2.69375 -2.96016
upperneck 18.7804 -3.30912 1.65802
head 8.68421 -1.59272 0.642911
rclavicle 1.36167e-014 4.77083e-015
rhumerus -44.2953 -23.3954 -9.53173
rradius 43.4057
rwrist 18.8171
rhand -1.39569 -43.9184
rfingers 7.12502
rthumb 24.2529 -72.4045
lclavicle 1.36167e-014 4.77083e-015
lhumerus -34.982 20.9174 19.3269
lradius 39.0557
lwrist -22.7061
lhand -0.0435714 -22.5728
lfingers 7.12502
lthumb 25.5486 5.73391
rfemur 2.13451 7.31342 12.4677
rtibia -7.95139e-015
rfoot -18.706 -15.2483
rtoes -4.38023
lfemur -7.41405 -6.00176 -15.0343
ltibia 20.53
lfoot -21.6782 15.3257
ltoes -54.3883
769
root -0.501709 18.7823 5.69733 4.70574 -2.5804 0.341042
lowerback 16.0909 1.32597 -0.78911
upperback -2.90866 1.73424 1.02054
thorax -12.358 0.916299 1.11564
lowerneck -16.5102 -2.71421 -3.11563
upperneck 19.0061 -3.3287 1.76836
head 8.74815 -1.60204 0.703854
rclavicle 1.44119e-014 3.57812e-015
rhumerus -45.8843 -22.8294 -10.4792
rradius 44.1905
rwrist 17.5931
rhand -1.83124 -43.5021
rfingers 7.12502
rthumb 23.8352 -72.0434
lclavicle 1.44119e-014 3.57812e-015
lhumerus -36.7932 21.2479 19.9727
lradius 39.9243
lwrist -21.5244
lhand -0.613693 -23.0446
lfingers 7.12502
lthumb 25.0024 5.33932
rfemur 2.39352 7.40711 12.5252
rtibia 0
rfoot -18.7998 -15.1469
rtoes -4.06041
lfemur -7.13816 -6.00409 -15.0344
ltibia 20.5636
lfoot -21.7519 15.342
ltoes -54.4093
770
root -0.501272 18.7774 5.70056 4.44608 -2.57096 0.322034
lowerback 16.087 1.29885 -0.811621
upperback -2.99939 1.69998 1.06738
thorax -12.4609 0.904921 1.1888
lowerneck -16.4205 -2.72898 -3.32614
upperneck 19.2261 -3.32795 1.88722
head 8.8133 -1.60502 0.779343
rclavicle 1.78906e-015 5.1684e-015
rhumerus -47.5196 -22.4698 -11.3978
rradius 44.9725
rwrist 16.5012
rhand -2.0814 -43.0084
rfingers 7.12502
rthumb 23.5953 -71.5808
lclavicle 1.78906e-015 5.1684e-015
lhumerus -38.5778 21.7626 20.6431
lradius 40.714
lwrist -20.6524
lhand -0.970785 -23.4516
lfingers 7.12502
lthumb 24.6602 4.97944
rfemur 2.70445 7.43299 12.5823
rtibia -4.77083e-015
rfoot -18.8876 -15.0544
rtoes -3.79905
lfemur -6.85046 -5.92281 -15.0395
ltibia 20.5966
lfoot -21.7289 15.256
ltoes -54.5011
